PathFileType	4	(X/Y/Z)	Patient4_TMGait_0pt7_02_right_39.trc.trc
DataRate	CameraRate	NumFrames	NumMarkers	Units	OrigDataRate	OrigDataStartFrame	OrigNumFrames
85.365853658537	85.365853658537	5	33	mm	85.365853658537	1	       141
Frame#	Time	Sacral			L.Shoulder			Chest			R.Shoulder			Neck			R.ASIS			L.ASIS			R.Thigh.Superior			R.Thigh.Lateral			R.Thigh.Inferior			R.Patella			L.Thigh.Superior			L.Thigh.Lateral			L.Thigh.Inferior			L.Patella			L.Shank.Superior			L.Shank.Lateral			L.Shank.Inferior			R.Shank.Superior			R.Shank.Lateral			R.Shank.Inferior			R.Heel			R.Midfoot.Superior			R.Midfoot.Lateral			R.Toe			L.Heel			L.Midfoot.Lateral			L.Midfoot.Superior			L.Toe			L.Elbow			L.Wrist			R.Elbow			R.Wrist			
		X1	Y1	Z1	X2	Y2	Z2	X3	Y3	Z3	X4	Y4	Z4	X5	Y5	Z5	X6	Y6	Z6	X7	Y7	Z7	X8	Y8	Z8	X9	Y9	Z9	X10	Y10	Z10	X11	Y11	Z11	X12	Y12	Z12	X13	Y13	Z13	X14	Y14	Z14	X15	Y15	Z15	X16	Y16	Z16	X17	Y17	Z17	X18	Y18	Z18	X19	Y19	Z19	X20	Y20	Z20	X21	Y21	Z21	X22	Y22	Z22	X23	Y23	Z23	X24	Y24	Z24	X25	Y25	Z25	X26	Y26	Z26	X27	Y27	Z27	X28	Y28	Z28	X29	Y29	Z29	X30	Y30	Z30	X31	Y31	Z31	X32	Y32	Z32	X33	Y33	Z33	

1	44.070000000000	763.765253393923	1031.484010757187	428.265611958275	1011.079054041925	1410.484563779311	222.956867491594	1098.121653104162	1338.425919540508	392.803186238368	1026.017318617361	1442.008256515647	556.252429471674	1018.481192183233	1484.264747110874	372.111278827435	973.873330213145	944.687049482447	558.331859942748	978.206349810052	948.701248093614	284.873537870561	1053.884789138939	779.610623114235	535.454354082449	1013.500831917900	665.680829330915	615.467256595895	1105.641803691626	623.651050958132	539.088594591154	1121.739216667189	506.154378686392	565.540698470363	1016.674441030069	746.196310063792	324.454372570118	930.206183556177	633.883883836476	261.412372115906	1005.914465769954	554.260830745697	335.744434559521	1003.095453710331	483.928115924661	345.392675537467	971.209887947081	414.470623439059	333.931572092138	879.164890947674	306.288760585857	274.217914263006	913.996240911963	192.691774884053	351.090684724435	1032.438976574808	440.523340711125	572.626096309943	901.467814268461	428.344076344193	626.558228635225	869.579031044746	323.088386077497	581.196937143893	659.153288620077	290.491183094576	541.467033713424	819.733552496158	221.703164634586	602.809275674288	707.734555232233	237.114195959051	626.653145272546	867.119757209833	106.000773456632	647.498671595666	772.550329253894	40.124669918923	376.697993386105	855.706640248107	36.175168536879	306.089515847789	936.019843196042	96.194861523003	342.122547991470	1066.346968237270	40.121057232238	329.894402840519	949.547628523371	1065.914774806247	105.172514480994	1128.135650085435	875.587168861488	116.286339135346	987.708934828268	1102.885790212775	697.726129554127	1110.549897380842	873.275508238123	664.668191765184	
2	44.081714285714	762.131944170605	1030.441246163205	427.301738108857	1011.009736868631	1409.937468896966	223.630965826072	1097.042776357788	1337.675737972630	394.021862116774	1023.816475810119	1440.806695243265	557.325529875568	1017.842366274877	1483.569827005854	372.978355359264	972.250171404124	944.538122113218	558.583234096331	977.626825026937	948.411451608835	285.106396444271	1055.009515592643	782.600384281627	536.152011874137	1016.609005766375	668.159338569194	616.106785089955	1110.157203278902	628.324576329491	540.305743557907	1129.071719999871	511.616094665934	566.686736887210	1014.521847273945	744.894096363311	324.681049346447	927.217678421673	633.163442669606	261.213620787821	1001.787761326895	552.899032161808	335.618610167424	998.199950671083	482.633547735777	345.482006531366	965.813288902394	413.328942057276	334.004364806358	873.123287287849	305.895349445274	274.118988854052	906.391884645421	192.083420666601	351.186979049157	1041.808691878243	443.622782461196	573.816651008848	911.553555428327	427.169653878313	627.819786896646	883.121015177163	320.876269409671	582.548534783157	674.071328756450	281.409234262377	543.073900502498	836.521707603686	217.779404555571	603.971494578646	724.411792109362	229.690539869489	628.206147039717	887.827625147244	103.888846276356	648.816910142647	763.830955259240	40.134490951549	376.682671061588	847.070275629679	36.157883831667	306.056422351530	927.397062513820	96.143846068981	342.109531551808	1057.721575484815	40.026799230992	329.890615143682	954.056741489270	1066.042454985770	103.225858594700	1141.507962680870	887.043061215687	116.032277688401	976.408398269544	1102.757150222358	698.799503160440	1081.838535161780	865.979640465458	675.110380226804	
3	44.093428571429	760.539903196140	1029.452259497309	426.376749973501	1010.986171641800	1409.429956021847	224.330716466558	1096.001907139642	1336.952146220829	395.258493770027	1021.661924952044	1439.638604495789	558.397470495766	1017.239539684054	1482.907035041753	373.871255354209	970.626769754889	944.405379543252	558.847627053290	977.065666154094	948.176953322095	285.336328071297	1056.061903948198	785.593552814420	536.825732885399	1019.630793237717	670.626567300813	616.726412554594	1114.537040359681	632.952317914484	541.484216383217	1136.221850196981	517.044170836143	567.793432864102	1012.389309385302	743.596103140959	324.872407561229	924.203320965907	632.473534280616	261.048409233612	997.653704285243	551.559598416161	335.520842152566	993.305087604246	481.372038746362	345.603368699196	960.430017856473	412.225515050106	334.099553791384	867.114598994960	305.525603563021	274.035554909480	898.858998630424	191.502400238310	351.289522070848	1051.055499756115	446.669742157622	574.952732920522	921.561950708525	425.851367737227	629.069004977433	896.636635383424	318.532361090291	583.864904038333	688.984116221514	272.095010909963	544.723957036625	853.362380495690	213.695560119841	605.080470594014	741.140208256822	222.039333414683	629.757724948809	908.651753869934	101.658750895395	650.029233482805	755.220603106476	40.153761184310	376.665288262185	838.536586113068	36.147991927932	306.026731901219	918.879820748513	96.095924299012	342.098684801955	1049.198188393591	39.935737777493	329.884290952114	958.502774969682	1066.212854573933	101.384250129672	1154.586549123892	898.459361161039	115.868879540829	965.219297884933	1102.719859512062	699.868419380485	1053.518507739583	859.179602498381	685.234105986560	
4	44.105142857143	759.026576078321	1028.573116018114	425.541342973395	1011.064547839115	1408.995477602252	225.099669435839	1095.041063787008	1336.275581435534	396.550981439139	1019.603533781531	1438.536479502452	559.485311798128	1016.717354453833	1482.303865322939	374.830667258064	969.003420761592	944.300032926486	559.156562560729	976.541533093668	948.043863815888	285.572573655188	1056.953281194895	788.560410230452	537.466131195064	1022.436536601165	673.035866992306	617.311050870921	1118.599328177110	637.437207814860	542.591330487729	1142.965450821200	522.381856544427	568.826570906991	1010.254220452815	742.308121292266	325.027185025639	921.103996185147	631.851321771285	260.946226919635	993.448021342746	550.265195886989	335.476245991458	988.345300489916	480.178227964070	345.778394493318	955.009880760508	411.202996178259	334.230736933643	861.104223532048	305.210634513607	273.975850508143	891.397581641429	190.982859659206	351.398683252107	1060.057787144459	449.601585788898	575.993101675188	931.499642208287	424.193926511896	630.313346320113	910.247924993263	315.906646672386	585.133952890212	704.174193400580	262.210431987414	546.478670580760	870.543862216538	209.303251806662	606.114441066743	758.262738679539	213.881500533513	631.324868475864	929.970106276659	99.282035686333	651.046345762291	746.745966201012	40.208806578248	376.639458674850	830.127242975811	36.159671048525	306.001594013895	910.496306783126	96.058377091249	342.088231501853	1040.795795008875	39.848406626279	329.873458744865	962.862421580100	1066.464360555856	99.760523145407	1167.141906978371	909.890311204431	115.920937634668	954.181578780304	1102.907699527236	700.940822565238	1025.836669024666	853.377981941012	694.744826839064	
5	44.116857142857	757.620197798773	1027.851055985630	424.839705375225	1011.292172676800	1408.657839492074	225.976866241567	1094.196417713415	1335.662057799579	397.934431847215	1017.682222385001	1437.526962303445	560.607387424551	1016.314386961071	1481.782410359223	375.890777917745	967.384022416853	944.230249987962	559.543811892026	976.070743981422	948.045186886157	285.824249294638	1057.608035446347	791.461811701148	538.070537962337	1024.908881455285	675.336455796112	617.847656412977	1122.182510563656	641.679399939281	543.600498958807	1149.105425091694	527.569311542411	569.759781853681	1008.084017759641	741.037203330627	325.162670516448	917.865014336735	631.331747982572	260.927321606374	989.100423896612	549.037231404846	335.504063636760	983.248338034701	479.083494389652	346.015957236475	949.493551058632	410.298948531237	334.402287202775	855.044012088804	304.978397197958	273.941899614914	883.989023688655	190.556175065325	351.510764223606	1068.710088682379	452.364515557947	576.911013339441	941.392433619256	422.029052047153	631.562180638005	924.092544053228	312.880822266213	586.354844481717	719.956255155511	251.465518028942	548.390444275827	888.359240339331	204.499621540096	607.069965834101	776.138739899777	204.993702421816	632.925563845156	952.151120300854	96.779181473262	651.809474140814	738.404640310093	40.327734191027	376.597959395091	821.836895560231	36.207178343687	305.980441074583	902.247240417788	96.038358183403	342.075053527137	1032.505984877175	39.764149929616	329.857125909679	967.127000812786	1066.823669415780	98.446612113329	1179.007349760475	921.399213717629	116.297480417066	943.313902004402	1103.440284490919	702.027677298912	998.971133464927	848.965664681473	703.404892199776	
